<svg viewBox="0 0 771.83 213.33" xmlns="http://www.w3.org/2000/svg"><g fill="#fff"><path d="m266.68 142.39 16.61 4.61a27 27 0 0 1 -5.29 10.64 22.79 22.79 0 0 1 -8.94 6.46 36.23 36.23 0 0 1 -13.57 2.18q-10 0-16.34-2.66a25.14 25.14 0 0 1 -10.95-9.34q-4.59-6.67-4.6-17.11 0-13.9 8.1-21.37t22.91-7.47q11.58 0 18.22 4.28t9.86 13.15l-16.69 3.4a12.66 12.66 0 0 0 -1.84-3.74 10.64 10.64 0 0 0 -3.89-3.06 12 12 0 0 0 -5.15-1.07q-6.45 0-9.88 4.73-2.6 3.51-2.59 11 0 9.31 3.1 12.77t8.7 3.46c3.62 0 6.37-.93 8.22-2.79a16.62 16.62 0 0 0 4.01-8.07z"/><path d="m287 137.34q0-13.73 8.37-21.37t23.3-7.64q15.32 0 23.6 7.51t8.29 21q0 9.83-3.62 16.11a24.72 24.72 0 0 1 -10.46 9.79q-6.84 3.5-17.05 3.5-10.38 0-17.18-3a25.13 25.13 0 0 1 -11-9.56q-4.25-6.52-4.25-16.34zm19 .08q0 8.47 3.45 12.19a12.25 12.25 0 0 0 9.4 3.71q6.1 0 9.45-3.63t3.35-13q0-7.91-3.49-11.56t-9.48-3.65a12 12 0 0 0 -9.2 3.71q-3.48 3.67-3.48 12.23z"/><path d="m355.33 137.34q0-13.73 8.37-21.37t23.3-7.64q15.31 0 23.6 7.51t8.29 21q0 9.83-3.62 16.11a24.66 24.66 0 0 1 -10.46 9.79q-6.84 3.5-17.05 3.5-10.38 0-17.18-3a25.13 25.13 0 0 1 -11-9.56q-4.24-6.52-4.25-16.34zm18.95.08q0 8.47 3.45 12.19a12.25 12.25 0 0 0 9.4 3.71q6.11 0 9.45-3.63t3.35-13q0-7.91-3.49-11.56t-9.44-3.69a12 12 0 0 0 -9.2 3.71q-3.52 3.71-3.52 12.27z"/><path d="m426 109.29h19v42.23h29.58v13.8h-48.58z"/><path d="m476.78 146.78 18-1a11.94 11.94 0 0 0 2.38 6.12c1.95 2.26 4.74 3.4 8.37 3.4a9.85 9.85 0 0 0 6.25-1.74 5.06 5.06 0 0 0 2.2-4 5 5 0 0 0 -2.09-3.9q-2.1-1.72-9.71-3.25-12.47-2.57-17.78-6.8a13.23 13.23 0 0 1 -5.36-10.82 13.85 13.85 0 0 1 2.74-8.16 18 18 0 0 1 8.25-6q5.49-2.2 15.08-2.2 11.76 0 17.93 4t7.38 12.57l-17.86 1a8.64 8.64 0 0 0 -3-5.51 10.32 10.32 0 0 0 -6.3-1.72 8.05 8.05 0 0 0 -5 1.29 3.8 3.8 0 0 0 -1.68 3.11 3 3 0 0 0 1.39 2.41q1.33 1.11 6.36 2.06 12.42 2.44 17.8 5a18.31 18.31 0 0 1 7.82 6.21 14.7 14.7 0 0 1 2.45 8.3 16.75 16.75 0 0 1 -3.26 9.94 20.1 20.1 0 0 1 -9.12 6.89 39.91 39.91 0 0 1 -14.77 2.36q-15.66 0-21.68-5.51a20.89 20.89 0 0 1 -6.79-14.05z"/><path d="m539 109.29h19v19.6h20.71v-19.6h19v56h-19v-22.64h-20.78v22.67h-18.93z"/><path d="m604.8 137.34q0-13.73 8.37-21.37t23.31-7.64q15.32 0 23.6 7.51t8.28 21q0 9.83-3.62 16.11a24.66 24.66 0 0 1 -10.46 9.79q-6.84 3.5-17 3.5-10.38 0-17.18-3a25.1 25.1 0 0 1 -11-9.56q-4.3-6.52-4.3-16.34zm19 .08q0 8.47 3.45 12.19a12.21 12.21 0 0 0 9.39 3.71q6.12 0 9.46-3.63t3.35-13q0-7.91-3.5-11.56t-9.47-3.65a12 12 0 0 0 -9.21 3.71q-3.51 3.67-3.51 12.23z"/><path d="m675.41 109.29h31.5q10.3 0 15.42 4.47t5.13 12.73q0 8.47-5.59 13.26t-17 4.78h-10.43v20.79h-19zm19 23.88h4.65c3.65 0 6.22-.57 7.7-1.73a5.42 5.42 0 0 0 2.24-4.44 5.94 5.94 0 0 0 -1.92-4.47c-1.28-1.22-3.7-1.83-7.24-1.83h-5.4z"/><path d="m721 85.7h-510.84v6.5h510.84a44.38 44.38 0 0 1 0 88.8h-510.84v6.5h510.84a50.88 50.88 0 0 0 0-101.8z"/><path d="m106.66 187.15a80.49 80.49 0 1 0 -80.48-80.49 80.49 80.49 0 0 0 80.48 80.49zm51.22-57.21a56.24 56.24 0 1 1 -.45-47.52h-23a36.84 36.84 0 1 0 .82 47.52zm0 0" fill-rule="evenodd"/><path d="m55 13.32a106.68 106.68 0 0 0 51.65 200h77.58a29.1 29.1 0 0 0 29.09-29.09v-77.57a106.7 106.7 0 0 0 -158.32-93.34zm151.53 93.34v77.58a22.29 22.29 0 0 1 -22.3 22.3h-77.57a99.88 99.88 0 1 1 99.88-99.88zm0 0"/></g></svg>